<svg id="Capa_1" enable-background="new 0 0 512 512" height="512" viewBox="0 0 512 512" width="512" xmlns="http://www.w3.org/2000/svg"><g><g id="_x3C_Group_x3E__35_"><path d="m504.5 75.33v255.94h-497v-255.94c0-11.05 8.95-20 20-20h457c11.05 0 20 8.95 20 20z" fill="#f5fcff"/><path d="m26.5 55.36v275.91h-19v-255.94c0-10.71 8.42-19.45 19-19.97z" fill="#e6f7fe"/><path d="m291.5 417.671-36.628 9.074-34.372-9.074 10-43.566h51z" fill="#ab7b64"/><path d="m308.831 417.671h-105.662c-2.378 0-4.686.299-6.889.862 0 0-9.472 9.987-9.472 22.935l-4.335 1.729c0 5.109 4.141 9.25 9.25 9.25l132.085 2.043c5.109 0 9.25-4.141 9.25-9.25v-2c0-3.059 3.027-3.821 2.113-6.573-3.666-11.036-14.074-18.996-26.34-18.996z" fill="#b78c7a"/><path d="m336.58 445.42v2c0 5.11-4.14 9.25-9.25 9.25h-142.66c-5.11 0-9.25-4.14-9.25-9.25v-2c0-12.94 8.87-23.83 20.86-26.89-.56 2.2-.86 4.51-.86 6.89v2c0 5.11 4.14 9.25 9.25 9.25h130.49c.93 2.75 1.42 5.69 1.42 8.75z" fill="#ab7b64"/><path d="m504.5 321.27v32.84c0 11.04-8.95 20-20 20h-457c-11.05 0-20-8.96-20-20v-32.84l9.5 7.007 9.5-7.007z" fill="#b78c7a"/><path d="m504.47 355.11c-.52 10.58-9.26 19-19.97 19h-457c-11.05 0-20-8.96-20-20v-32.84h19v25.84c0 4.41 3.59 8 8 8z" fill="#ab7b64"/><path d="m350.485 360.24-2.768-7.42-22.857-31.348 23.62-19.235 31.17 24.583 2.212 7.87z" fill="#bed9fd"/><path d="m362.64 313.4-14.16-11.16-23.62 19.23 17.76 35.5 11.444-.594 3.476-11.556-7.587-15.17c-.823-1.645-.405-3.623.982-4.831 4.112-3.583 8.022-7.396 11.705-11.419z" fill="#9ec8fc"/><path d="m383.691 215.717c0 47.835-26.303 89.526-65.234 111.4-18.464 10.374-39.769 12.885-62.456 12.885-70.522 0-122.229-55.466-122.229-125.988 0-27.739 3.384-51.71 18.408-72.651 23.17-32.297 61.038-53.337 103.82-53.337 70.522 0 127.691 57.169 127.691 127.691z" fill="#5f6c75"/><path d="m352.55 299.28c-23.41 27.03-57.98 44.13-96.55 44.13-70.52 0-127.69-57.17-127.69-127.69 0-38.57 17.1-73.14 44.13-96.55-19.4 22.39-31.13 51.6-31.13 83.55 0 70.52 57.17 127.69 127.69 127.69 31.95 0 61.16-11.73 83.55-31.13z" fill="#4e5a61"/><path d="m353.184 215.717c0 29.158-12.841 55.316-33.176 73.13-17.097 14.977-38.038 21.214-62.553 21.214-53.673 0-95.06-42.09-95.06-95.763 0-25.738 6.427-47.72 22.761-65.107 17.728-18.871 42.91-30.657 70.844-30.657 53.673-.001 97.184 43.51 97.184 97.183z" fill="#bed9fd"/><path d="m332.25 275.97c-17.8 22.5-45.34 36.93-76.25 36.93-53.67 0-97.18-43.51-97.18-97.18 0-30.93 14.44-58.48 36.95-76.27-13.12 16.56-20.95 37.5-20.95 60.27 0 53.67 43.51 97.18 97.18 97.18 22.76 0 43.69-7.82 60.25-20.93z" fill="#9ec8fc"/><path d="m430.094 426.58c-10.943 8.911-26.17 2.893-35.081-8.05l-41.652-50.099-2.847-9.083 31.96-25.237 7.94 3.275 43.359 53.245c8.91 10.944 7.263 27.038-3.679 35.949z" fill="#5f6c75"/><path d="m415.33 417.24-46.971-56.49c-1.417-1.704-1.182-4.233.529-5.642 6.615-5.447 21.522-17.718 21.522-17.718-3.14-3.855-6.692-7.356-10.593-10.438l-.167-.132-37.03 30.15c2.19 4.385 4.838 8.526 7.9 12.353l.27.337 43.36 53.24c8.91 10.94 25 12.59 35.94 3.68.14-.11.27-.23.41-.36-5.76-1.05-11.18-4.09-15.17-8.98z" fill="#4e5a61"/><path d="m270.67 240.92 17.567 2.84c6.785 2.18 11.605 7.241 12.586 13.215l1.033 7.014c.621 4.212-2.631 7.998-6.889 8.02l-77.863.406c-4.287.022-7.587-3.779-6.962-8.02l1.093-7.42c.981-5.974 5.801-11.035 12.586-13.215l19.269-1.329z" fill="#d5717f"/><path d="m288.73 243.93c-9.05 7.77-20.45 11.99-32.68 11.99-12.24 0-23.64-4.22-32.69-12 .15-.06.3-.11.46-.16l17.47-5.61 30.26.25 16.69 5.36c.17.05.33.11.49.17z" fill="#cd5668"/><path d="m220.963 197.827c.83 26.816 14.87 43.089 35.09 43.089 16.219 0 30.037-10.356 35.299-28.287 1.308-4.456-2.777-13.26-2.621-18.609l-32.676-26.06z" fill="#f7e5c1"/><path d="m262.88 201.43c-8.61 5.51-18.83 8.39-27.5 9.88 4.19 15.85 14.91 26.06 28.16 28.84-2.42.51-4.93.77-7.49.77-16.16 0-29.94-10.27-35.25-28.09-1.33-4.47-2.13-9.43-2.29-14.81l37.54-30.06 7.52 5.99 30.02 23.95c-.16 5.35-.93 10.28-2.24 14.73-13.07-1.01-21.14-4.6-28.47-11.2z" fill="#f4d9b1"/><path d="m291.412 162.96c-1.516-1.804-5.694-6.775-13.136-8.611-2.685-.662-5.182-.766-7.337-.604-4.448.333-8.933-.084-13.21-1.348-4.668-1.379-11.241-2.341-18.704-.511-1.216.298-3.382.895-5.982 2.041-4.311 1.901-7.739 5.315-12.079 11.385-7.795 10.901-6.909 24.445-5.572 29.192.308 1.095 1.298 1.853 2.435 1.854 13.167.008 35.25-1.953 44.254-14.18.821-1.115 2.48-1.132 3.352-.057 9.132 11.251 14.14 14.816 28.562 15.668 1.221.072 2.309-.763 2.59-1.953 1.259-5.324 3.469-22.592-5.173-32.876z" fill="#5f6c75"/><g fill="#4e5a61"><path d="m262.61 181.67c-.2.13-.38.3-.53.51-9 12.22-31.38 15.73-44.54 15.72-1.14 0-2.13-.76-2.44-1.85-1.33-4.75-4.01-19.84 3.79-30.74 4.65-6.5 10.63-9.96 15.05-11.76-.36.44-.71.9-1.05 1.38-7.8 10.9-5.12 25.99-3.79 30.74.31 1.09 1.3 1.85 2.44 1.85 8.53.01 20.95-1.47 31.07-5.85z"/><path d="m263.23 181.4c-.2.1-.4.19-.6.26.19-.12.39-.21.6-.26z"/></g></g><g><g><path d="m504.5 241.564c4.143 0 7.5-3.358 7.5-7.5v-158.735c0-15.164-12.336-27.5-27.5-27.5h-457c-15.164 0-27.5 12.336-27.5 27.5v278.776c0 15.164 12.336 27.5 27.5 27.5h90.691c4.143 0 7.5-3.358 7.5-7.5s-3.357-7.5-7.5-7.5h-90.691c-6.893 0-12.5-5.607-12.5-12.5v-23.698h169.724c21.615 13.362 46.414 20.208 71.347 20.208 22.771-.001 45.648-5.711 66.299-17.355l16.68 33.345h-185.752c-4.143 0-7.5 3.358-7.5 7.5s3.357 7.5 7.5 7.5h67.786l-6.557 28.566h-11.358c-19.437 0-35.25 15.813-35.25 35.25v2c0 9.236 7.514 16.75 16.75 16.75h142.662c9.236 0 16.75-7.514 16.75-16.75v-2c0-19.437-15.813-35.25-35.25-35.25h-11.358l-6.557-28.566h59.929l37.484 46.032c11.2 13.737 31.914 16.322 46.5 4.759 14.131-11.508 16.266-32.368 4.758-46.5l-3.494-4.291h48.407c15.163 0 27.5-12.336 27.5-27.5v-85.063c0-4.142-3.357-7.5-7.5-7.5s-7.5 3.358-7.5 7.5v46.365h-119.708l-17.212-13.574c17.042-20.44 27.638-45.457 30.407-72.508 3.671-35.866-6.857-71.012-29.646-98.962-47.056-57.719-132.369-66.422-190.179-19.403-14.39 11.703-26.003 25.904-34.519 42.21-1.917 3.671-.495 8.202 3.177 10.12 3.669 1.917 8.202.496 10.12-3.176 7.564-14.486 17.89-27.108 30.687-37.517 51.399-41.806 127.253-34.07 169.089 17.245 20.253 24.842 29.61 56.08 26.348 87.957-3.266 31.91-18.782 60.641-43.69 80.9-51.398 41.807-127.251 34.071-169.089-17.246-24.846-30.476-33.166-71.256-22.255-109.089 1.148-3.979-1.147-8.137-5.128-9.284-3.978-1.151-8.137 1.147-9.284 5.128-12.274 42.558-2.913 88.436 25.041 122.724 4.265 5.231 8.848 10.055 13.692 14.477h-149.851v-240.08c0-6.893 5.607-12.5 12.5-12.5h457c6.893 0 12.5 5.607 12.5 12.5v158.735c0 4.142 3.357 7.5 7.5 7.5zm-175.419 203.857v2c0 .965-.785 1.75-1.75 1.75h-142.662c-.965 0-1.75-.785-1.75-1.75v-2c0-11.166 9.084-20.25 20.25-20.25h17.312c.009 0 .018.001.026.001.006 0 .011-.001.017-.001h70.952c.006 0 .011.001.017.001.009 0 .018-.001.026-.001h17.312c11.166 0 20.25 9.084 20.25 20.25zm-46.997-35.25h-52.167l6.557-28.566h39.054zm143.273 10.594c-7.717 6.284-19.109 5.12-25.396-2.6l-43.353-53.238 27.995-22.798c9.172 11.264 34.741 42.663 43.354 53.239 6.285 7.718 5.119 19.111-2.6 25.397zm71.643-66.66c0 6.893-5.607 12.5-12.5 12.5h-60.621l-29.477-36.198h102.598zm-155.662-33.771c2.944-2.394 5.764-4.9 8.47-7.498l23.883 18.835-25.113 20.45-13.504-26.995c2.12-1.529 4.211-3.122 6.264-4.792z"/><path d="m268.899 111.646c-28.605-3.564-56.673 4.505-79.019 22.722-44.745 36.48-51.494 102.62-15.043 147.436 17.668 21.723 42.726 35.254 70.558 38.103 3.627.371 7.243.555 10.84.555 23.979 0 47.041-8.175 65.884-23.538 44.746-36.48 51.494-102.62 15.043-147.436-10.884-13.381-24.993-23.945-40.803-30.548-3.82-1.597-8.215.207-9.812 4.03-1.596 3.822.208 8.215 4.03 9.811 13.534 5.653 25.619 14.704 34.947 26.172 31.238 38.407 25.458 95.085-12.885 126.345-18.562 15.132-41.902 22.125-65.718 19.687-23.843-2.44-45.311-14.034-60.448-32.646-31.237-38.407-25.458-95.085 12.885-126.345 19.141-15.604 43.18-22.516 67.687-19.463 4.104.515 7.857-2.404 8.369-6.515.513-4.11-2.404-7.857-6.515-8.37z"/><path d="m303.884 197.563c.236-1.001 5.658-24.686-6.73-39.428-1.797-2.139-7.266-8.647-17.082-11.068-3.151-.777-6.414-1.047-9.692-.802-3.672.274-7.212-.082-10.526-1.062-7.438-2.197-15.259-2.405-22.617-.602-5.78 1.419-16.642 5.429-24.447 16.345-10.71 14.976-5.532 34.909-4.905 37.136.591 2.095 1.836 3.879 3.471 5.163 1.341 13.162 6.317 24.271 13.884 32.182l-3.71 1.192c-9.476 3.045-16.255 10.379-17.693 19.141-.006.041-.013.082-.019.122l-1.093 7.419c-.617 4.187.62 8.422 3.395 11.618 2.758 3.178 6.745 4.996 10.95 4.996h.075l77.864-.406c4.203-.022 8.186-1.864 10.924-5.053 2.739-3.189 3.958-7.403 3.345-11.561l-1.033-7.014c-.006-.041-.013-.081-.019-.122-1.438-8.762-8.218-16.096-17.693-19.141l-3.669-1.179c7.663-8.006 12.663-19.295 13.932-32.675 1.493-1.331 2.596-3.121 3.088-5.201zm-47.831 35.854c-15.292 0-26.492-11.181-29.351-28.482 10.405-.994 26.447-4.059 36.909-13.385 6.39 7.066 12.26 11.037 21.884 12.797-2.699 17.638-13.969 29.07-29.442 29.07zm-31.064-63.745c4.995-6.985 12.057-9.578 15.82-10.502 2.169-.532 4.363-.797 6.571-.797 2.729 0 5.478.406 8.223 1.217 5.061 1.495 10.411 2.044 15.895 1.634 1.696-.125 3.373.01 4.981.407 5.069 1.25 7.957 4.687 9.189 6.154h.001c4.892 5.821 4.994 15.867 4.302 22.121-8.578-1.099-11.825-4.02-18.716-12.511-1.896-2.335-4.703-3.619-7.714-3.564-2.994.071-5.728 1.492-7.501 3.9-5.826 7.91-21.216 11.905-34.505 12.571-.904-5.851-.882-14.566 3.454-20.63zm68.425 88.469.938 6.372-76.704.4.997-6.772c.544-3.162 3.4-5.933 7.471-7.24l15.359-4.934c4.513 1.592 9.397 2.45 14.578 2.45 5.174 0 10.052-.855 14.56-2.441l15.331 4.925c4.069 1.307 6.926 4.078 7.47 7.24z"/></g></g></g></svg>